<mxfile host="app.diagrams.net" modified="2021-03-06T07:25:39.982Z" agent="5.0 (Macintosh; Intel Mac OS X 10_15_7) AppleWebKit/537.36 (KHTML, like Gecko) Chrome/86.0.4240.193 Safari/537.36" etag="GD7IcdvrwkHIA-nehQyJ" version="14.4.4" type="github">
  <diagram id="Gii9eCsJXD4yC527uo9Z" name="Page-1">
    <mxGraphModel dx="946" dy="536" grid="1" gridSize="10" guides="1" tooltips="1" connect="1" arrows="1" fold="1" page="1" pageScale="1" pageWidth="827" pageHeight="1169" math="0" shadow="0">
      <root>
        <mxCell id="0" />
        <mxCell id="1" parent="0" />
        <mxCell id="iYd9J9kUqUceisKaJ4w8-5" style="edgeStyle=orthogonalEdgeStyle;rounded=0;orthogonalLoop=1;jettySize=auto;html=1;exitX=1;exitY=0.25;exitDx=0;exitDy=0;entryX=0;entryY=0.25;entryDx=0;entryDy=0;" edge="1" parent="1" source="iYd9J9kUqUceisKaJ4w8-1" target="iYd9J9kUqUceisKaJ4w8-2">
          <mxGeometry relative="1" as="geometry" />
        </mxCell>
        <mxCell id="iYd9J9kUqUceisKaJ4w8-1" value="node1" style="rounded=1;whiteSpace=wrap;html=1;fillColor=#ffe6cc;strokeColor=#d79b00;" vertex="1" parent="1">
          <mxGeometry x="110" y="130" width="100" height="50" as="geometry" />
        </mxCell>
        <mxCell id="iYd9J9kUqUceisKaJ4w8-6" style="edgeStyle=orthogonalEdgeStyle;rounded=0;orthogonalLoop=1;jettySize=auto;html=1;exitX=0;exitY=0.75;exitDx=0;exitDy=0;entryX=1;entryY=0.75;entryDx=0;entryDy=0;" edge="1" parent="1" source="iYd9J9kUqUceisKaJ4w8-2" target="iYd9J9kUqUceisKaJ4w8-1">
          <mxGeometry relative="1" as="geometry" />
        </mxCell>
        <mxCell id="iYd9J9kUqUceisKaJ4w8-2" value="node2" style="rounded=1;whiteSpace=wrap;html=1;fillColor=#ffe6cc;strokeColor=#d79b00;" vertex="1" parent="1">
          <mxGeometry x="250" y="130" width="100" height="50" as="geometry" />
        </mxCell>
        <mxCell id="iYd9J9kUqUceisKaJ4w8-12" style="edgeStyle=orthogonalEdgeStyle;rounded=0;orthogonalLoop=1;jettySize=auto;html=1;exitX=1;exitY=0.25;exitDx=0;exitDy=0;entryX=0;entryY=0.25;entryDx=0;entryDy=0;" edge="1" parent="1" source="iYd9J9kUqUceisKaJ4w8-3" target="iYd9J9kUqUceisKaJ4w8-8">
          <mxGeometry relative="1" as="geometry" />
        </mxCell>
        <mxCell id="iYd9J9kUqUceisKaJ4w8-13" style="edgeStyle=orthogonalEdgeStyle;rounded=0;orthogonalLoop=1;jettySize=auto;html=1;exitX=0;exitY=0.75;exitDx=0;exitDy=0;entryX=1;entryY=0.75;entryDx=0;entryDy=0;" edge="1" parent="1" source="iYd9J9kUqUceisKaJ4w8-3" target="iYd9J9kUqUceisKaJ4w8-2">
          <mxGeometry relative="1" as="geometry" />
        </mxCell>
        <mxCell id="iYd9J9kUqUceisKaJ4w8-3" value="node3" style="rounded=1;whiteSpace=wrap;html=1;fillColor=#ffe6cc;strokeColor=#d79b00;" vertex="1" parent="1">
          <mxGeometry x="390" y="130" width="100" height="50" as="geometry" />
        </mxCell>
        <mxCell id="iYd9J9kUqUceisKaJ4w8-14" style="edgeStyle=orthogonalEdgeStyle;rounded=0;orthogonalLoop=1;jettySize=auto;html=1;exitX=0;exitY=0.75;exitDx=0;exitDy=0;entryX=1;entryY=0.75;entryDx=0;entryDy=0;" edge="1" parent="1" source="iYd9J9kUqUceisKaJ4w8-8" target="iYd9J9kUqUceisKaJ4w8-3">
          <mxGeometry relative="1" as="geometry" />
        </mxCell>
        <mxCell id="iYd9J9kUqUceisKaJ4w8-8" value="node4" style="rounded=1;whiteSpace=wrap;html=1;fillColor=#ffe6cc;strokeColor=#d79b00;" vertex="1" parent="1">
          <mxGeometry x="520" y="130" width="100" height="50" as="geometry" />
        </mxCell>
      </root>
    </mxGraphModel>
  </diagram>
</mxfile>
